<svg width="20" height="20" viewBox="0 0 20 20" fill="none" xmlns="http://www.w3.org/2000/svg">
    <path fill-rule="evenodd" clip-rule="evenodd" d="M10 7.84989C8.81025 7.84989 7.85002 8.81013 7.85002 9.99989C7.85002 11.1897 8.81025 12.1499 10 12.1499C11.1898 12.1499 12.15 11.1897 12.15 9.99989C12.15 8.81013 11.1898 7.84989 10 7.84989ZM6.18335 9.99989C6.18335 7.88966 7.88978 6.18323 10 6.18323C12.1103 6.18323 13.8167 7.88966 13.8167 9.99989C13.8167 12.1101 12.1103 13.8166 10 13.8166C7.88978 13.8166 6.18335 12.1101 6.18335 9.99989Z" fill="#DA291C"/>
    <path fill-rule="evenodd" clip-rule="evenodd" d="M1.7055 7.38539C3.72597 4.20943 6.70498 2.26654 9.99995 2.26654C13.2951 2.26654 16.2743 4.20965 18.2947 7.38594C18.7753 8.13936 18.9874 9.09282 18.9874 9.99571C18.9874 10.8988 18.7752 11.8525 18.2944 12.606C16.2739 15.782 13.2949 17.7249 9.99995 17.7249C6.70479 17.7249 3.72562 15.7818 1.70515 12.6055C1.22463 11.8521 1.01245 10.8986 1.01245 9.99571C1.01245 9.0926 1.22473 8.1389 1.7055 7.38539ZM9.99995 3.93321C7.41178 3.93321 4.90761 5.45676 3.11142 8.28048L3.11072 8.28157C2.84174 8.70298 2.67912 9.32404 2.67912 9.99571C2.67912 10.6674 2.84174 11.2884 3.11072 11.7098L3.11142 11.7109C4.90761 14.5347 7.41178 16.0582 9.99995 16.0582C12.5881 16.0582 15.0923 14.5347 16.8885 11.7109L16.8892 11.7098C17.1582 11.2884 17.3208 10.6674 17.3208 9.99571C17.3208 9.32404 17.1582 8.70298 16.8892 8.28157L16.8885 8.28048C15.0923 5.45676 12.5881 3.93321 9.99995 3.93321Z" fill="#DA291C"/>
</svg>
