<svg width="20" height="20" viewBox="0 0 20 20" fill="none" xmlns="http://www.w3.org/2000/svg">
    <g clip-path="url(#clip0_2131_25700)">
        <path fill-rule="evenodd" clip-rule="evenodd" d="M10 7.8516C9.71791 7.8516 9.43855 7.90717 9.17791 8.01513C8.91726 8.1231 8.68044 8.28134 8.48095 8.48083C8.28146 8.68031 8.12322 8.91714 8.01526 9.17778C7.90729 9.43843 7.85173 9.71778 7.85173 9.9999C7.85173 10.2807 7.90668 10.5557 8.01064 10.8108L10.8109 8.01051C10.5559 7.90656 10.2808 7.8516 10 7.8516ZM8.5401 6.47533C9.00295 6.28361 9.49904 6.18494 10 6.18494C11.0118 6.18494 11.9822 6.58687 12.6976 7.30231C13.0231 7.62775 13.0231 8.15539 12.6976 8.48083L8.48095 12.6975C8.15551 13.0229 7.62787 13.0229 7.30244 12.6975C6.58699 11.982 6.18506 11.0117 6.18506 9.9999C6.18506 9.49891 6.28374 9.00283 6.47546 8.53998C6.66718 8.07712 6.94818 7.65657 7.30244 7.30231C7.65669 6.94806 8.07725 6.66705 8.5401 6.47533Z" fill="#DA291C"/>
        <path fill-rule="evenodd" clip-rule="evenodd" d="M1.7055 7.39375C3.72597 4.21779 6.70498 2.2749 9.99995 2.2749C11.9245 2.2749 13.7644 2.94558 15.3518 4.14294C15.7192 4.42009 15.7924 4.94263 15.5152 5.31006C15.2381 5.67749 14.7156 5.75068 14.3481 5.47353C13.0189 4.47089 11.5254 3.94157 9.99995 3.94157C7.41178 3.94157 4.90761 5.46513 3.11142 8.28884L3.11072 8.28993C2.84174 8.71134 2.67912 9.3324 2.67912 10.0041C2.67912 10.6757 2.84174 11.2968 3.11072 11.7182L3.1111 11.7188C3.72918 12.689 4.44341 13.5172 5.20998 14.1764C5.55893 14.4765 5.59853 15.0027 5.29844 15.3516C4.99835 15.7005 4.4722 15.7401 4.12325 15.4401C3.22316 14.666 2.40405 13.7108 1.70547 12.6143C1.22472 11.8608 1.01245 10.9072 1.01245 10.0041C1.01245 9.10096 1.22473 8.14726 1.7055 7.39375ZM16.186 5.95889C16.5446 5.67043 17.0692 5.72731 17.3576 6.08594C17.6814 6.48846 18.0004 6.92218 18.2952 7.38671C18.7754 8.14002 18.9874 9.09314 18.9874 9.99574C18.9874 10.8988 18.7752 11.8525 18.2944 12.6061C16.2739 15.782 13.2949 17.7249 9.99995 17.7249C8.85658 17.7249 7.73865 17.4831 6.69324 17.0429C6.26907 16.8643 6.06999 16.3757 6.24859 15.9515C6.42719 15.5274 6.91583 15.3283 7.34 15.5069C8.19459 15.8667 9.09332 16.0582 9.99995 16.0582C12.5881 16.0582 15.0923 14.5347 16.8885 11.711L16.8892 11.7099C17.1582 11.2885 17.3208 10.6674 17.3208 9.99574C17.3208 9.32406 17.1582 8.70301 16.8892 8.2816L16.888 8.27976C16.6328 7.87762 16.3518 7.49468 16.0589 7.13053C15.7705 6.77191 15.8274 6.24735 16.186 5.95889Z" fill="#DA291C"/>
        <path fill-rule="evenodd" clip-rule="evenodd" d="M18.9226 1.07727C19.2481 1.40271 19.2481 1.93034 18.9226 2.25578L12.6976 8.48078C12.3722 8.80622 11.8446 8.80622 11.5191 8.48078C11.1937 8.15534 11.1937 7.62771 11.5191 7.30227L17.7441 1.07727C18.0696 0.751832 18.5972 0.751832 18.9226 1.07727ZM13.0839 9.76514C13.5357 9.85288 13.8308 10.2903 13.7431 10.7421C13.5985 11.4864 13.2348 12.1706 12.6986 12.7068C12.1625 13.243 11.4783 13.6067 10.7339 13.7512C10.2821 13.839 9.84473 13.5439 9.75699 13.0921C9.66925 12.6403 9.96438 12.2029 10.4162 12.1151C10.8344 12.0339 11.2189 11.8296 11.5201 11.5283C11.8214 11.227 12.0258 10.8426 12.107 10.4243C12.1947 9.97253 12.6321 9.6774 13.0839 9.76514ZM8.48096 11.5189C8.8064 11.8444 8.8064 12.372 8.48096 12.6974L2.25596 18.9224C1.93053 19.2479 1.40289 19.2479 1.07745 18.9224C0.752015 18.597 0.752015 18.0694 1.07745 17.7439L7.30245 11.5189C7.62789 11.1935 8.15553 11.1935 8.48096 11.5189Z" fill="#DA291C"/>
    </g>
    <defs>
        <clipPath id="clip0_2131_25700">
            <rect width="20" height="20" fill="white"/>
        </clipPath>
    </defs>
</svg>
