<svg width="80" height="80" viewBox="0 0 80 80" fill="none" xmlns="http://www.w3.org/2000/svg">
    <path d="M38.6458 55.9144C40.2439 55.9144 41.5394 54.6189 41.5394 53.0208C41.5394 51.4228 40.2439 50.1273 38.6458 50.1273C37.0478 50.1273 35.7523 51.4228 35.7523 53.0208C35.7523 54.6189 37.0478 55.9144 38.6458 55.9144Z" fill="black"/>
    <path fill-rule="evenodd" clip-rule="evenodd" d="M49.7631 19.9574V30.9027H53.9815C55.1334 30.9027 56.1068 31.0281 56.9695 31.2753C58.1125 31.6028 58.7736 32.7948 58.4462 33.9377C58.1186 35.0807 56.9265 35.7417 55.7837 35.4143C55.2759 35.2689 54.6776 35.2082 53.9815 35.2082H12.3148C8.71471 35.2082 5.787 38.1359 5.787 41.7359V65.4628C5.787 69.0629 8.71471 71.9906 12.3148 71.9906H48.3391C49.5281 71.9907 50.4919 72.9545 50.4919 74.1435C50.4919 75.3325 49.5281 76.2963 48.3391 76.2963H12.3148C6.34193 76.2963 1.48145 71.4358 1.48145 65.4629V41.7361C1.48145 35.7632 6.34193 30.9027 12.3148 30.9027H16.5224V19.9574C16.5224 11.0106 23.964 3.70367 33.1428 3.70367C42.3216 3.70367 49.7631 11.0106 49.7631 19.9574ZM20.8279 30.9027H45.4576V19.9574C45.4576 13.3462 39.9112 8.00923 33.1428 8.00923C26.3744 8.00923 20.8279 13.3462 20.8279 19.9574V30.9027Z" fill="black"/>
    <path d="M27.7951 55.9144C29.3932 55.9144 30.6886 54.6189 30.6886 53.0208C30.6886 51.4228 29.3932 50.1273 27.7951 50.1273C26.1971 50.1273 24.9016 51.4228 24.9016 53.0208C24.9016 54.6189 26.1971 55.9144 27.7951 55.9144Z" fill="black"/>
    <path d="M16.9444 55.9144C18.5425 55.9144 19.8379 54.6189 19.8379 53.0208C19.8379 51.4228 18.5425 50.1273 16.9444 50.1273C15.3464 50.1273 14.0509 51.4228 14.0509 53.0208C14.0509 54.6189 15.3464 55.9144 16.9444 55.9144Z" fill="black"/>
    <path fill-rule="evenodd" clip-rule="evenodd" d="M49.3926 51.2999L56.9982 58.9004L75.7572 40.1462C75.9301 39.9732 76.1355 39.836 76.3614 39.7424C76.5874 39.6488 76.8296 39.6006 77.0741 39.6006C77.3187 39.6006 77.5609 39.6488 77.7869 39.7424C78.0128 39.836 78.2182 39.9732 78.3911 40.1462C78.564 40.3191 78.7012 40.5244 78.7948 40.7504C78.8884 40.9763 78.9366 41.2185 78.9366 41.4631C78.9366 41.7077 78.8884 41.9499 78.7948 42.1758C78.7012 42.4018 78.564 42.6071 78.3911 42.7801L58.3142 62.857C58.1414 63.03 57.9363 63.1673 57.7104 63.2609C57.4846 63.3545 57.2425 63.4027 56.998 63.4027C56.7535 63.4027 56.5114 63.3545 56.2855 63.2609C56.0597 63.1673 55.8538 63.0293 55.681 62.8562L46.7583 53.9335C46.5853 53.7606 46.4481 53.5552 46.3545 53.3293C46.2609 53.1033 46.2128 52.8611 46.2128 52.6165C46.2128 52.372 46.2609 52.1298 46.3545 51.9038C46.4481 51.6778 46.5853 51.4725 46.7583 51.2996C46.9312 51.1266 47.1365 50.9894 47.3625 50.8958C47.5885 50.8022 47.8307 50.7541 48.0752 50.7541C48.3198 50.7541 48.562 50.8022 48.788 50.8958C49.0139 50.9894 49.2196 51.127 49.3926 51.2999Z" fill="#EE3642"/>
</svg>
